{
  "accessors": [
    {
      "bufferView": 2,
      "componentType": 5126,
      "count": 36658,
      "max": [
        22.533344268798828,
        25.147506713867188,
        26.179704666137695
      ],
      "min": [
        0,
        0.11198306083679199,
        0
      ],
      "type": "VEC3"
    },
    {
      "bufferView": 2,
      "byteOffset": 439896,
      "componentType": 5126,
      "count": 36658,
      "max": [
        0.99995309114456177,
        0.99593734741210938,
        0.99974650144577026
      ],
      "min": [
        -0.99198561906814575,
        -0.9999811053276062,
        -0.99997437000274658
      ],
      "type": "VEC3"
    },
    {
      "bufferView": 3,
      "componentType": 5126,
      "count": 36658,
      "max": [
        0.98482096195220947,
        0.97822606563568115,
        0.98349422216415405,
        1
      ],
      "min": [
        -0.9985734224319458,
        -0.99999946355819702,
        -0.99859875440597534,
        -1
      ],
      "type": "VEC4"
    },
    {
      "bufferView": 3,
      "byteOffset": 586528,
      "componentType": 5126,
      "count": 36658,
      "max": [
        0.75294119119644165,
        0.75294119119644165,
        0.75294119119644165,
        1
      ],
      "min": [
        0.75294119119644165,
        0.75294119119644165,
        0.75294119119644165,
        1
      ],
      "type": "VEC4"
    },
    {
      "bufferView": 1,
      "componentType": 5126,
      "count": 36658,
      "max": [
        0.99792098999023438,
        0.99803698062896729
      ],
      "min": [
        0.0020039998926222324,
        0.021821999922394753
      ],
      "type": "VEC2"
    },
    {
      "bufferView": 0,
      "componentType": 5125,
      "count": 211053,
      "max": [
        36657
      ],
      "min": [
        0
      ],
      "type": "SCALAR"
    },
    {
      "bufferView": 2,
      "byteOffset": 879792,
      "componentType": 5126,
      "count": 32765,
      "max": [
        23.061567306518555,
        25.375438690185547,
        22.425073623657227
      ],
      "min": [
        0.89564895629882812,
        0,
        7.0683813095092773
      ],
      "type": "VEC3"
    },
    {
      "bufferView": 2,
      "byteOffset": 1272972,
      "componentType": 5126,
      "count": 32765,
      "max": [
        0.99999421834945679,
        0.96342909336090088,
        0.9966767430305481
      ],
      "min": [
        -0.99138975143432617,
        -0.99996864795684814,
        -0.9993245005607605
      ],
      "type": "VEC3"
    },
    {
      "bufferView": 3,
      "byteOffset": 1173056,
      "componentType": 5126,
      "count": 32765,
      "max": [
        0.99010717868804932,
        0.9894225001335144,
        0.81688761711120605,
        1
      ],
      "min": [
        -0.99998384714126587,
        -0.99633461236953735,
        -0.99996888637542725,
        -1
      ],
      "type": "VEC4"
    },
    {
      "bufferView": 3,
      "byteOffset": 1697296,
      "componentType": 5126,
      "count": 32765,
      "max": [
        0.75294119119644165,
        0.75294119119644165,
        0.75294119119644165,
        1
      ],
      "min": [
        0.75294119119644165,
        0.75294119119644165,
        0.75294119119644165,
        1
      ],
      "type": "VEC4"
    },
    {
      "bufferView": 1,
      "byteOffset": 293264,
      "componentType": 5126,
      "count": 32765,
      "max": [
        0.94534498453140259,
        0.99794399738311768
      ],
      "min": [
        0.049559000879526138,
        0.14306999742984772
      ],
      "type": "VEC2"
    },
    {
      "bufferView": 0,
      "byteOffset": 844212,
      "componentType": 5125,
      "count": 192063,
      "max": [
        32764
      ],
      "min": [
        0
      ],
      "type": "SCALAR"
    },
    {
      "bufferView": 2,
      "byteOffset": 1666152,
      "componentType": 5126,
      "count": 34447,
      "max": [
        21.249134063720703,
        25.661216735839844,
        25.115058898925781
      ],
      "min": [
        1.6622962951660156,
        0,
        2.6218624114990234
      ],
      "type": "VEC3"
    },
    {
      "bufferView": 2,
      "byteOffset": 2079516,
      "componentType": 5126,
      "count": 34447,
      "max": [
        0.99992746114730835,
        0.99636721611022949,
        0.99974650144577026
      ],
      "min": [
        -0.9993356466293335,
        -0.99992746114730835,
        -0.99995124340057373
      ],
      "type": "VEC3"
    },
    {
      "bufferView": 3,
      "byteOffset": 2221536,
      "componentType": 5126,
      "count": 34447,
      "max": [
        0.99444174766540527,
        0.99553894996643066,
        0.96293467283248901,
        1
      ],
      "min": [
        -0.99998664855957031,
        -0.99994689226150513,
        -0.9998173713684082,
        -1
      ],
      "type": "VEC4"
    },
    {
      "bufferView": 3,
      "byteOffset": 2772688,
      "componentType": 5126,
      "count": 34447,
      "max": [
        0.75294119119644165,
        0.75294119119644165,
        0.75294119119644165,
        1
      ],
      "min": [
        0.75294119119644165,
        0.75294119119644165,
        0.75294119119644165,
        1
      ],
      "type": "VEC4"
    },
    {
      "bufferView": 1,
      "byteOffset": 555384,
      "componentType": 5126,
      "count": 34447,
      "max": [
        0.96832400560379028,
        0.99793201684951782
      ],
      "min": [
        0.0019670000765472651,
        0.13533000648021698
      ],
      "type": "VEC2"
    },
    {
      "bufferView": 0,
      "byteOffset": 1612464,
      "componentType": 5125,
      "count": 200706,
      "max": [
        34446
      ],
      "min": [
        0
      ],
      "type": "SCALAR"
    },
    {
      "bufferView": 2,
      "byteOffset": 2492880,
      "componentType": 5126,
      "count": 181,
      "max": [
        21.132026672363281,
        25.776483535766602,
        25.61274528503418
      ],
      "min": [
        2.3169593811035156,
        5.5468759536743164,
        2.8630523681640625
      ],
      "type": "VEC3"
    },
    {
      "bufferView": 2,
      "byteOffset": 2495052,
      "componentType": 5126,
      "count": 181,
      "max": [
        0.963043212890625,
        0.99636721611022949,
        0.99735724925994873
      ],
      "min": [
        -0.99881446361541748,
        -0.93417423963546753,
        -0.92801165580749512
      ],
      "type": "VEC3"
    },
    {
      "bufferView": 3,
      "byteOffset": 3323840,
      "componentType": 5126,
      "count": 181,
      "max": [
        0,
        0,
        0,
        1
      ],
      "min": [
        0,
        0,
        0,
        1
      ],
      "type": "VEC4"
    },
    {
      "bufferView": 3,
      "byteOffset": 3326736,
      "componentType": 5126,
      "count": 181,
      "max": [
        0.75294119119644165,
        0.75294119119644165,
        0.75294119119644165,
        1
      ],
      "min": [
        0.75294119119644165,
        0.75294119119644165,
        0.75294119119644165,
        1
      ],
      "type": "VEC4"
    },
    {
      "bufferView": 0,
      "byteOffset": 2415288,
      "componentType": 5125,
      "count": 609,
      "max": [
        180
      ],
      "min": [
        0
      ],
      "type": "SCALAR"
    }
  ],
  "asset": {
    "extras": {
      "author": "alban (https://sketchfab.com/alban)",
      "license": "CC-BY-4.0 (http://creativecommons.org/licenses/by/4.0/)",
      "source": "https://sketchfab.com/models/5a9706cafdde428696cb5a25bcd51014",
      "title": "Salad head"
    },
    "generator": "Sketchfab-3.18.7",
    "version": "2.0"
  },
  "bufferViews": [
    {
      "buffer": 0,
      "byteLength": 2417724,
      "byteOffset": 0,
      "name": "floatBufferViews",
      "target": 34963
    },
    {
      "buffer": 0,
      "byteLength": 830960,
      "byteOffset": 2417724,
      "byteStride": 8,
      "name": "floatBufferViews",
      "target": 34962
    },
    {
      "buffer": 0,
      "byteLength": 2497224,
      "byteOffset": 3248684,
      "byteStride": 12,
      "name": "floatBufferViews",
      "target": 34962
    },
    {
      "buffer": 0,
      "byteLength": 3329632,
      "byteOffset": 5745908,
      "byteStride": 16,
      "name": "floatBufferViews",
      "target": 34962
    }
  ],
  "buffers": [
    {
      "byteLength": 9075540,
      "uri": "scene.bin"
    }
  ],
  "extensionsUsed": [
    "KHR_materials_unlit"
  ],
  "images": [
    {
      "uri": "textures/material_1_baseColor.jpeg"
    },
    {
      "uri": "textures/material_0_baseColor.jpeg"
    },
    {
      "uri": "textures/material_2_baseColor.jpeg"
    }
  ],
  "materials": [
    {
      "doubleSided": true,
      "emissiveFactor": [
        0,
        0,
        0
      ],
      "extensions": {
        "KHR_materials_unlit": {}
      },
      "name": "material_0",
      "pbrMetallicRoughness": {
        "baseColorFactor": [
          1,
          1,
          1,
          1
        ],
        "baseColorTexture": {
          "index": 1,
          "texCoord": 0
        },
        "metallicFactor": 0,
        "roughnessFactor": 1
      }
    },
    {
      "doubleSided": true,
      "emissiveFactor": [
        0,
        0,
        0
      ],
      "extensions": {
        "KHR_materials_unlit": {}
      },
      "name": "material_1",
      "pbrMetallicRoughness": {
        "baseColorFactor": [
          1,
          1,
          1,
          1
        ],
        "baseColorTexture": {
          "index": 0,
          "texCoord": 0
        },
        "metallicFactor": 0,
        "roughnessFactor": 1
      }
    },
    {
      "doubleSided": true,
      "emissiveFactor": [
        0,
        0,
        0
      ],
      "extensions": {
        "KHR_materials_unlit": {}
      },
      "name": "material_2",
      "pbrMetallicRoughness": {
        "baseColorFactor": [
          1,
          1,
          1,
          1
        ],
        "baseColorTexture": {
          "index": 2,
          "texCoord": 0
        },
        "metallicFactor": 0,
        "roughnessFactor": 1
      }
    },
    {
      "doubleSided": true,
      "emissiveFactor": [
        0,
        0,
        0
      ],
      "extensions": {
        "KHR_materials_unlit": {}
      },
      "name": "material_3",
      "pbrMetallicRoughness": {
        "baseColorFactor": [
          0.50196099999999999,
          0.50196099999999999,
          0.50196099999999999,
          1
        ],
        "metallicFactor": 0,
        "roughnessFactor": 1
      }
    }
  ],
  "meshes": [
    {
      "primitives": [
        {
          "attributes": {
            "COLOR_0": 3,
            "NORMAL": 1,
            "POSITION": 0,
            "TANGENT": 2,
            "TEXCOORD_0": 4
          },
          "indices": 5,
          "material": 0,
          "mode": 4
        }
      ]
    },
    {
      "primitives": [
        {
          "attributes": {
            "COLOR_0": 9,
            "NORMAL": 7,
            "POSITION": 6,
            "TANGENT": 8,
            "TEXCOORD_0": 10
          },
          "indices": 11,
          "material": 1,
          "mode": 4
        }
      ]
    },
    {
      "primitives": [
        {
          "attributes": {
            "COLOR_0": 15,
            "NORMAL": 13,
            "POSITION": 12,
            "TANGENT": 14,
            "TEXCOORD_0": 16
          },
          "indices": 17,
          "material": 2,
          "mode": 4
        }
      ]
    },
    {
      "primitives": [
        {
          "attributes": {
            "COLOR_0": 21,
            "NORMAL": 19,
            "POSITION": 18,
            "TANGENT": 20
          },
          "indices": 22,
          "material": 3,
          "mode": 4
        }
      ]
    }
  ],
  "nodes": [
    {
      "children": [
        1
      ],
      "name": "RootNode (gltf orientation matrix)",
      "rotation": [
        -0.70710678118654746,
        -0,
        -0,
        0.70710678118654757
      ]
    },
    {
      "children": [
        2
      ],
      "matrix": [
        0.63975948095321655,
        -0.3121052086353302,
        0.70235186815261841,
        0,
        0.0098110828548669815,
        -0.9104454517364502,
        -0.41351282596588135,
        0,
        0.7685125470161438,
        0.27143958210945129,
        -0.57940399646759033,
        0,
        -2.9521853923797607,
        22.299468994140625,
        10.864484786987305,
        1
      ],
      "name": "RootNode (model correction matrix)"
    },
    {
      "children": [
        3
      ],
      "matrix": [
        1,
        0,
        0,
        0,
        0,
        1,
        0,
        0,
        0,
        0,
        1,
        0,
        -35.483970642089844,
        1.9055709838867188,
        -20.785697937011719,
        1
      ],
      "name": "mesh.obj.cleaner.materialmerger.gles"
    },
    {
      "children": [
        4,
        5,
        6,
        7
      ],
      "name": ""
    },
    {
      "mesh": 0,
      "name": ""
    },
    {
      "mesh": 1,
      "name": ""
    },
    {
      "mesh": 2,
      "name": ""
    },
    {
      "mesh": 3,
      "name": ""
    }
  ],
  "samplers": [
    {
      "magFilter": 9729,
      "minFilter": 9987,
      "wrapS": 10497,
      "wrapT": 10497
    }
  ],
  "scene": 0,
  "scenes": [
    {
      "name": "OSG_Scene",
      "nodes": [
        0
      ]
    }
  ],
  "textures": [
    {
      "sampler": 0,
      "source": 0
    },
    {
      "sampler": 0,
      "source": 1
    },
    {
      "sampler": 0,
      "source": 2
    }
  ]
}

